# xmcd
#
# Track frame offsets:
#	150
#	26690
#	49057
#	67615
#	93587
#	106945
#
# Disc length: 1815 seconds
#
# Revision: 0
# Processed by: cddbd v1.5.2PL0 Copyright (c) Steve Scherf et al.
# Submitted via: audiograbber 1.83.01
#
DISCID=42071506
DTITLE=Abb Locke - Big City Blues (Chicago 2005)
DYEAR=2005
DGENRE=Blues
TTITLE0=Motel Blues
TTITLE1=Big City Blues
TTITLE2=Going Home
TTITLE3=Blues, Blues, Blues
TTITLE4=43rd Street Blues And Grease
TTITLE5=Chicago Blues Rap
EXTD=
EXTT0=
EXTT1=
EXTT2=
EXTT3=
EXTT4=
EXTT5=
PLAYORDER=
